name E:\Dropbox\SEL\BOX\Experiment\240124_SUB1_PJH\c3d\XYZ\UpDown_TrcMot\15_10_trial1_D1_ExtLoadAPP2.mot
datacolumns 37
datarows 9
range 8.985 8.993
endheader

time	    ground_force1_vx	    ground_force1_vy	    ground_force1_vz	    ground_force1_px	    ground_force1_py	    ground_force1_pz	    ground_torque1_x	    ground_torque1_y	    ground_torque1_z	    ground_force2_vx	    ground_force2_vy	    ground_force2_vz	    ground_force2_px	    ground_force2_py	    ground_force2_pz	    ground_torque2_x	    ground_torque2_y	    ground_torque2_z	      hand_force3_vx	      hand_force3_vy	      hand_force3_vz	      hand_force3_px	      hand_force3_py	      hand_force3_pz	      hand_torque3_x	      hand_torque3_y	      hand_torque3_z	      hand_force4_vx	      hand_force4_vy	      hand_force4_vz	      hand_force4_px	      hand_force4_py	      hand_force4_pz	      hand_torque4_x	      hand_torque4_y	      hand_torque4_z	
8.985	         37.77613015	        409.51254452	        -20.47866616	          0.22922719	          0.00000000	          0.29286162	          0.00000000	         -4.25316483	          0.00000000	        -38.86687902	        404.26888308	        -13.91549951	          0.57935485	          0.00000000	          0.26590220	          0.00000000	          3.55320820	          0.00000000	          0.00000000	          0.00000000	          0.00000000	          0.00000000	          0.00000000	          0.00000000	          0.00000000	          0.00000000	          0.00000000	          0.00000000	          0.00000000	          0.00000000	          0.00000000	          0.00000000	          0.00000000	          0.00000000	          0.00000000	          0.00000000	
8.986	         37.68910235	        409.41226193	        -20.46101016	          0.22923118	          0.00000000	          0.29284928	          0.00000000	         -4.24485340	          0.00000000	        -38.91160950	        404.42356371	        -13.94012094	          0.57937428	          0.00000000	          0.26595765	          0.00000000	          3.56205940	          0.00000000	          0.00000000	          0.00000000	          0.00000000	          0.00000000	          0.00000000	          0.00000000	          0.00000000	          0.00000000	          0.00000000	          0.00000000	          0.00000000	          0.00000000	          0.00000000	          0.00000000	          0.00000000	          0.00000000	          0.00000000	          0.00000000	
8.987	         37.60226780	        409.31993114	        -20.44387342	          0.22923559	          0.00000000	          0.29283786	          0.00000000	         -4.23664660	          0.00000000	        -38.95577487	        404.57562265	        -13.96785381	          0.57939335	          0.00000000	          0.26601396	          0.00000000	          3.57060231	          0.00000000	          0.00000000	          0.00000000	          0.00000000	          0.00000000	          0.00000000	          0.00000000	          0.00000000	          0.00000000	          0.00000000	          0.00000000	          0.00000000	          0.00000000	          0.00000000	          0.00000000	          0.00000000	          0.00000000	          0.00000000	          0.00000000	
8.988	         37.51562546	        409.23503734	        -20.42712760	          0.22924040	          0.00000000	          0.29282731	          0.00000000	         -4.22854600	          0.00000000	        -38.99942562	        404.72505194	        -13.99864813	          0.57941206	          0.00000000	          0.26607114	          0.00000000	          3.57882928	          0.00000000	          0.00000000	          0.00000000	          0.00000000	          0.00000000	          0.00000000	          0.00000000	          0.00000000	          0.00000000	          0.00000000	          0.00000000	          0.00000000	          0.00000000	          0.00000000	          0.00000000	          0.00000000	          0.00000000	          0.00000000	          0.00000000	
8.989	         37.42917296	        409.15703497	        -20.41064229	          0.22924561	          0.00000000	          0.29281755	          0.00000000	         -4.22055291	          0.00000000	        -39.04261336	        404.87186863	        -14.03244642	          0.57943041	          0.00000000	          0.26612917	          0.00000000	          3.58673346	          0.00000000	          0.00000000	          0.00000000	          0.00000000	          0.00000000	          0.00000000	          0.00000000	          0.00000000	          0.00000000	          0.00000000	          0.00000000	          0.00000000	          0.00000000	          0.00000000	          0.00000000	          0.00000000	          0.00000000	          0.00000000	          0.00000000	
8.99	         37.34290682	        409.08534923	        -20.39428570	          0.22925119	          0.00000000	          0.29280850	          0.00000000	         -4.21266843	          0.00000000	        -39.08539056	        405.01611454	        -14.06918408	          0.57944841	          0.00000000	          0.26618805	          0.00000000	          3.59430883	          0.00000000	          0.00000000	          0.00000000	          0.00000000	          0.00000000	          0.00000000	          0.00000000	          0.00000000	          0.00000000	          0.00000000	          0.00000000	          0.00000000	          0.00000000	          0.00000000	          0.00000000	          0.00000000	          0.00000000	          0.00000000	          0.00000000	
8.991	         37.25682270	        409.01937783	        -20.37792550	          0.22925713	          0.00000000	          0.29280010	          0.00000000	         -4.20489342	          0.00000000	        -39.12781032	        405.15785603	        -14.10878962	          0.57946606	          0.00000000	          0.26624777	          0.00000000	          3.60155020	          0.00000000	          0.00000000	          0.00000000	          0.00000000	          0.00000000	          0.00000000	          0.00000000	          0.00000000	          0.00000000	          0.00000000	          0.00000000	          0.00000000	          0.00000000	          0.00000000	          0.00000000	          0.00000000	          0.00000000	          0.00000000	          0.00000000	
8.992	         37.17091564	        408.95849281	        -20.36142952	          0.22926340	          0.00000000	          0.29279227	          0.00000000	         -4.19722851	          0.00000000	        -39.16992604	        405.29718358	        -14.15118504	          0.57948336	          0.00000000	          0.26630833	          0.00000000	          3.60845323	          0.00000000	          0.00000000	          0.00000000	          0.00000000	          0.00000000	          0.00000000	          0.00000000	          0.00000000	          0.00000000	          0.00000000	          0.00000000	          0.00000000	          0.00000000	          0.00000000	          0.00000000	          0.00000000	          0.00000000	          0.00000000	          0.00000000	
8.993	         37.08518024	        408.90204258	        -20.34466654	          0.22926999	          0.00000000	          0.29278495	          0.00000000	         -4.18967413	          0.00000000	        -39.21179125	        405.43421136	        -14.19628616	          0.57950031	          0.00000000	          0.26636972	          0.00000000	          3.61501446	          0.00000000	          0.00000000	          0.00000000	          0.00000000	          0.00000000	          0.00000000	          0.00000000	          0.00000000	          0.00000000	          0.00000000	          0.00000000	          0.00000000	          0.00000000	          0.00000000	          0.00000000	          0.00000000	          0.00000000	          0.00000000	          0.00000000	
